<?xml version="1.0" encoding="UTF-8"?>
<svg width="180" height="180" version="1.1" viewBox="0 0 180 180" xmlns="http://www.w3.org/2000/svg"><g aria-label="W"><path d="m126.46 151.68h-8.16l-26.01-69.36-2.38-5.61-5.61-15.98q-2.72-7.31-4.93-10.71-2.04-3.57-4.93-4.42-2.72-1.02-7.65-1.02v-5.78h47.09v5.78q-12.75 0-12.75 6.12 0 1.87 0.85 4.59 1.02 2.55 1.87 5.1l17.34 45.22 5.1 15.81h1.02l18.7-55.42q0.68-1.87 1.19-4.25 0.68-2.38 1.19-4.93t0.51-4.59q0-4.59-3.06-6.12-2.89-1.53-8.5-1.53v-5.78h36.04v5.78q-5.78 0.17-8.84 2.72-2.89 2.55-5.27 9.01zm-58.82 0h-7.65l-35.53-89.08q-3.91-10.37-7.65-13.94-3.74-3.74-10.2-4.08v-5.78h46.58v5.78q-6.29 0-8.67 1.36t-2.38 4.08q0 3.23 2.21 9.01l19.55 48.79 4.93 13.94h1.02l19.72-50.66 7.99 14.96h-4.59z"/></g></svg>
