<?xml version="1.0" encoding="UTF-8"?>
<svg width="250.14mm" height="31.523mm" version="1.1" viewBox="0 0 250.14 31.523" xmlns="http://www.w3.org/2000/svg"><g transform="translate(-39.834 -36.862)"><g fill="#fff" stroke-width="1.0991" aria-label="Wathematica"><path d="m70.83 68.209h-2.1103l-6.7267-17.938-0.61552-1.4509-1.4509-4.1327q-0.70345-1.8905-1.275-2.7698-0.52758-0.92327-1.275-1.1431-0.70345-0.26379-1.9784-0.26379v-1.4948h12.178v1.4948q-3.2974 0-3.2974 1.5828 0 0.48362 0.21983 1.1871 0.26379 0.65948 0.48362 1.319l4.4845 11.695 1.319 4.0888h0.26379l4.8362-14.333q0.17586-0.48362 0.30776-1.0991 0.17586-0.61552 0.30776-1.275 0.1319-0.65948 0.1319-1.1871 0-1.1871-0.79138-1.5828-0.74741-0.39569-2.1983-0.39569v-1.4948h9.3207v1.4948q-1.4948 0.04397-2.2862 0.70345-0.74741 0.65948-1.3629 2.3302zm-15.212 0h-1.9784l-9.1888-23.038q-1.0112-2.6819-1.9784-3.6052-0.96724-0.96724-2.6379-1.0552v-1.4948h12.047v1.4948q-1.6267 0-2.2422 0.35172-0.61552 0.35172-0.61552 1.0552 0 0.83534 0.57155 2.3302l5.056 12.618 1.275 3.6052h0.26379l5.1-13.102 2.0664 3.869h-1.1871z"/><path d="m86.499 68.253q-2.506 0-3.9569-1.319-1.4069-1.319-1.4069-3.6052 0-1.8026 0.79138-3.0336 0.83534-1.231 2.1543-2.0664 1.319-0.83534 2.8578-1.3629 1.5828-0.57155 3.0776-0.96724 1.4948-0.39569 2.6819-0.74741v-2.0224q0-2.8138-0.87931-3.9129-0.83534-1.0991-2.6819-1.0991-1.7146 0-2.2422 0.74741-0.48362 0.70345-0.48362 2.6819 0 1.1431-0.61552 1.7147-0.61552 0.52758-1.6267 0.52758-0.74741 0-1.4509-0.57155-0.65948-0.57155-0.65948-1.8026t0.96724-2.3302q0.96724-1.1431 2.7259-1.8026 1.8026-0.70345 4.2207-0.70345 3.781 0 5.4957 1.6267 1.7147 1.6267 1.7147 5.144v9.8482q0 1.3629 0.30776 1.7586 0.30776 0.39569 1.0112 0.39569 0.61552 0 1.0991-0.30776 0.52758-0.35172 1.0112-0.83534l0.74741 0.79138q-1.0991 1.5828-2.1983 2.4181-1.0991 0.79138-3.0336 0.79138-1.8026 0-2.3741-0.83534-0.57155-0.87931-0.79138-2.55l-0.26379-0.65948v-7.4741q-1.8905 0.48362-3.4733 1.1431-1.5388 0.61552-2.506 1.6707-0.92327 1.0112-0.92327 2.6819 0 1.6267 0.74741 2.55 0.74741 0.87931 2.0664 0.87931 1.0552 0 2.1543-0.52758 1.1431-0.52758 2.3302-1.6267l0.30776 1.8465h-0.57155q-1.0112 0.87931-1.9345 1.5828-0.87931 0.65948-1.9345 1.0112-1.0112 0.35172-2.4621 0.35172z"/><path d="m114.08 63.637 0.92327 0.87931q-0.83534 1.1871-1.6707 2.0664-0.79138 0.83534-1.8466 1.319-1.0112 0.48362-2.7258 0.48362-2.2862 0-3.4293-1.319-1.0991-1.319-1.0991-4.5284v-13.102h-2.506v-1.275q1.6267-1.0112 2.9017-2.6819 1.319-1.6707 2.55-4.4845h1.5388v6.331h5.144v2.1103h-5.144v11.739q0 2.3741 0.43966 3.2974 0.43965 0.87931 1.7146 0.87931 1.1431 0 1.7586-0.43965 0.65948-0.43965 1.4509-1.275z"/><path d="m140.46 67.901h-10.772v-1.4069q1.4948 0 2.1103-0.30776 0.65948-0.30776 0.79138-0.96724 0.17586-0.65948 0.17586-1.7586v-7.1224q0-1.7586-0.21983-3.2534-0.21982-1.4948-1.0552-2.3741-0.79137-0.87931-2.55-0.87931-1.319 0-2.6379 0.65948-1.275 0.65948-3.0336 2.3302l0.044-2.594h0.70345q1.9784-1.9345 3.5612-2.7698 1.6267-0.87931 3.4733-0.87931 1.8026 0 2.9896 0.70345 1.231 0.65948 1.9345 1.8465 0.70345 1.1431 0.96724 2.6379 0.30776 1.4509 0.30776 3.0336v8.5293q0 1.7586 0.57155 2.4621 0.61552 0.70345 2.6379 0.70345zm-13.365 0h-10.815v-1.4069q1.7586 0 2.4181-0.48362 0.65948-0.52758 0.65948-2.3302v-22.246q0-1.1431-0.61551-1.4509-0.61552-0.30776-1.4948-0.30776-0.52758 0-0.92327 0.04397-0.35172 0.04397-0.35172 0.04397v-1.4069l6.1991-1.4948h1.6707v26.643q0 1.0991 0.17587 1.7586 0.17586 0.65948 0.8793 0.96724 0.70345 0.26379 2.1983 0.26379z"/><path d="m150.87 68.341q-2.8138 0-5.012-1.231-2.1543-1.231-3.3853-3.6491-1.1871-2.4621-1.1871-5.9793 0-3.6931 1.319-6.1112t3.5172-3.6052 4.8802-1.1871q3.781 0 6.0672 2.506 2.2862 2.506 2.4181 7.2543h-14.157l-0.044-1.7586h9.2327q-0.044-1.7147-0.48362-3.1215-0.43965-1.4069-1.3629-2.2422-0.87931-0.83534-2.3302-0.83534-2.3741 0-3.5172 1.9345-1.0991 1.9345-1.0991 5.6715 0 2.9896 0.87931 4.9241 0.87931 1.8905 2.3741 2.8138 1.4948 0.87931 3.3414 0.87931 1.7586 0 2.9017-0.43965 1.1871-0.43965 1.9784-1.1871 0.83534-0.74741 1.5388-1.6707l0.92327 0.70345q-0.61551 1.231-1.3629 2.4181-0.74742 1.1431-1.7586 2.0224-0.96724 0.87931-2.3741 1.4069-1.3629 0.48362-3.2974 0.48362z"/><path d="m186.04 67.901h-10.947v-1.4069q1.4948 0 2.1543-0.30776t0.83535-1.0991q0.21982-0.79138 0.21982-2.2422v-8.0896q0-2.9457-0.96724-3.9129-0.92327-1.0112-2.4621-1.0112-1.1431 0-2.1543 0.48362-0.96724 0.43965-1.8026 1.0991-0.83534 0.61552-1.4508 1.275l-0.35173-2.4181h0.74742q1.6707-1.4948 3.2974-2.594 1.6707-1.0991 3.9129-1.0991 2.2862 0 3.6052 1.275 1.3629 1.231 1.8905 3.2534 0.0879 0.30776 0.13189 0.65948 0.044 0.30776 0.0879 0.65948v10.42q0 1.4069 0.17586 2.1983 0.21983 0.79138 0.92328 1.1431 0.70344 0.30776 2.1543 0.30776zm-13.014 0h-10.772v-1.4069q1.4069 0 2.0224-0.26379 0.65948-0.26379 0.83534-0.92327 0.17586-0.70345 0.17586-1.9784v-12.003q0-1.231-0.43965-1.5828-0.43965-0.39569-1.3629-0.39569-0.52758 0-0.87931 0.04397-0.30775 0.04397-0.30775 0.04397v-1.4509l5.8914-1.275h1.4509v4.0888l0.13189 1.0552v11.563q0 1.231 0.21983 1.8905 0.26379 0.65948 0.96724 0.92327 0.70345 0.26379 2.0664 0.26379zm25.764 0h-10.64v-1.4069q1.4509 0 2.0664-0.35172 0.65948-0.39569 0.79137-1.1871 0.17586-0.79138 0.17586-2.1103v-7.9138q0-2.0664-0.48361-3.1215-0.43966-1.0991-1.275-1.5388-0.79138-0.43965-1.8466-0.43965-1.4069 0-2.7698 0.92327t-2.4181 1.8905l-0.57155-2.2862h0.70345q1.7586-1.8026 3.4733-2.7698 1.7586-1.0112 3.6491-1.0112 2.7698 0 4.3965 1.8026 1.6267 1.7586 1.6267 5.8474v8.6172q0 1.319 0.17586 2.1543 0.17586 0.79138 0.83534 1.1431 0.65948 0.35172 2.1103 0.35172z"/><path d="m206.16 68.253q-2.506 0-3.9569-1.319-1.4069-1.319-1.4069-3.6052 0-1.8026 0.79138-3.0336 0.83534-1.231 2.1543-2.0664 1.319-0.83534 2.8578-1.3629 1.5828-0.57155 3.0776-0.96724 1.4948-0.39569 2.6819-0.74741v-2.0224q0-2.8138-0.87931-3.9129-0.83534-1.0991-2.6819-1.0991-1.7146 0-2.2422 0.74741-0.48362 0.70345-0.48362 2.6819 0 1.1431-0.61552 1.7147-0.61551 0.52758-1.6267 0.52758-0.74741 0-1.4508-0.57155-0.65948-0.57155-0.65948-1.8026t0.96723-2.3302q0.96724-1.1431 2.7259-1.8026 1.8026-0.70345 4.2207-0.70345 3.781 0 5.4957 1.6267t1.7146 5.144v9.8482q0 1.3629 0.30776 1.7586 0.30776 0.39569 1.0112 0.39569 0.61551 0 1.0991-0.30776 0.52759-0.35172 1.0112-0.83534l0.74742 0.79138q-1.0991 1.5828-2.1983 2.4181-1.0991 0.79138-3.0336 0.79138-1.8026 0-2.3741-0.83534-0.57155-0.87931-0.79138-2.55l-0.26379-0.65948v-7.4741q-1.8905 0.48362-3.4733 1.1431-1.5388 0.61552-2.506 1.6707-0.92328 1.0112-0.92328 2.6819 0 1.6267 0.74742 2.55 0.74741 0.87931 2.0664 0.87931 1.0552 0 2.1543-0.52758 1.1431-0.52758 2.3302-1.6267l0.30776 1.8465h-0.57155q-1.0112 0.87931-1.9345 1.5828-0.87931 0.65948-1.9345 1.0112-1.0112 0.35172-2.4621 0.35172z"/><path d="m233.74 63.637 0.92327 0.87931q-0.83534 1.1871-1.6707 2.0664-0.79137 0.83534-1.8465 1.319-1.0112 0.48362-2.7259 0.48362-2.2862 0-3.4293-1.319-1.0991-1.319-1.0991-4.5284v-13.102h-2.506v-1.275q1.6267-1.0112 2.9017-2.6819 1.319-1.6707 2.55-4.4845h1.5388v6.331h5.144v2.1103h-5.144v11.739q0 2.3741 0.43965 3.2974 0.43965 0.87931 1.7146 0.87931 1.1431 0 1.7586-0.43965 0.65948-0.43965 1.4509-1.275z"/><path d="m246.84 67.901h-10.859v-1.4069q1.4509 0 2.1103-0.26379 0.65948-0.26379 0.83535-0.96724 0.17586-0.70345 0.17586-1.9345v-11.915q0-1.4509-0.52759-1.7586-0.48362-0.35172-1.4948-0.35172-0.43965 0-0.79138 0.04397-0.30776 0.04397-0.30776 0.04397v-1.4509l5.8914-1.231h1.7146v16.575q0 1.275 0.17586 1.9784 0.21983 0.70345 0.92327 0.96724 0.70345 0.26379 2.1543 0.26379zm-5.4957-24.401q-1.231 0-2.0224-0.79138-0.79137-0.83534-0.79137-2.0224t0.74741-1.9784q0.79138-0.79138 2.0664-0.79138 1.3629 0 2.1103 0.79138t0.74741 1.9784-0.74741 2.0224q-0.74741 0.79138-2.1103 0.79138z"/><path d="m265.95 61.087 0.92327 0.65948q-0.83534 1.8026-1.9345 3.3414-1.0991 1.4948-2.7698 2.3741-1.6707 0.87931-4.2207 0.87931-2.8138 0-4.8802-1.275-2.0224-1.275-3.1655-3.6052-1.0991-2.3302-1.0991-5.4957 0-3.4293 1.1871-5.9793 1.1871-2.55 3.4733-3.9569 2.3302-1.4509 5.6715-1.4509t5.2319 1.3629q1.8905 1.3629 1.8905 3.3414 0 1.0991-0.61552 1.6707t-1.6267 0.57155q-1.0552 0-1.6267-0.52758-0.52758-0.52758-0.83534-1.275-0.30776-0.79138-0.61552-1.5388-0.30776-0.79138-0.92327-1.319-0.57155-0.52758-1.7586-0.52758-2.4621 0-3.781 1.9345-1.275 1.9345-1.275 5.6276 0 3.9129 1.4948 6.331 1.4948 2.3741 4.9241 2.3741 2.1983 0 3.5612-0.83534 1.3629-0.87931 2.7698-2.6819z"/><path d="m274.61 68.253q-2.506 0-3.9569-1.319-1.4069-1.319-1.4069-3.6052 0-1.8026 0.79138-3.0336 0.83534-1.231 2.1543-2.0664 1.319-0.83534 2.8578-1.3629 1.5828-0.57155 3.0776-0.96724 1.4948-0.39569 2.6819-0.74741v-2.0224q0-2.8138-0.8793-3.9129-0.83535-1.0991-2.6819-1.0991-1.7146 0-2.2422 0.74741-0.48362 0.70345-0.48362 2.6819 0 1.1431-0.61551 1.7147-0.61552 0.52758-1.6267 0.52758-0.74742 0-1.4509-0.57155-0.65948-0.57155-0.65948-1.8026t0.96724-2.3302q0.96723-1.1431 2.7258-1.8026 1.8026-0.70345 4.2207-0.70345 3.781 0 5.4957 1.6267t1.7146 5.144v9.8482q0 1.3629 0.30776 1.7586 0.30776 0.39569 1.0112 0.39569 0.61551 0 1.0991-0.30776 0.52759-0.35172 1.0112-0.83534l0.74741 0.79138q-1.0991 1.5828-2.1983 2.4181-1.0991 0.79138-3.0336 0.79138-1.8026 0-2.3741-0.83534-0.57155-0.87931-0.79137-2.55l-0.2638-0.65948v-7.4741q-1.8905 0.48362-3.4733 1.1431-1.5388 0.61552-2.506 1.6707-0.92327 1.0112-0.92327 2.6819 0 1.6267 0.74741 2.55 0.74741 0.87931 2.0664 0.87931 1.0552 0 2.1543-0.52758 1.1431-0.52758 2.3302-1.6267l0.30776 1.8465h-0.57155q-1.0112 0.87931-1.9345 1.5828-0.87931 0.65948-1.9345 1.0112-1.0112 0.35172-2.4621 0.35172z"/></g></g></svg>
